<mxfile host="app.diagrams.net" agent="Mozilla/5.0 (Windows NT 10.0; Win64; x64) AppleWebKit/537.36 (KHTML, like Gecko) Chrome/142.0.0.0 Safari/537.36" version="27.0.3">
  <diagram name="Страница — 1" id="LsRc7Uao_AkDA3CNIRgi">
    <mxGraphModel dx="2253" dy="1946" grid="1" gridSize="10" guides="1" tooltips="1" connect="1" arrows="1" fold="1" page="1" pageScale="1" pageWidth="827" pageHeight="1169" math="0" shadow="0">
      <root>
        <mxCell id="0" />
        <mxCell id="1" parent="0" />
        <mxCell id="K8zAyNqNulzR1zCwIbut-9" style="edgeStyle=orthogonalEdgeStyle;rounded=0;orthogonalLoop=1;jettySize=auto;html=1;exitX=0.5;exitY=1;exitDx=0;exitDy=0;entryX=0.5;entryY=0;entryDx=0;entryDy=0;" edge="1" parent="1" source="K8zAyNqNulzR1zCwIbut-1" target="K8zAyNqNulzR1zCwIbut-2">
          <mxGeometry relative="1" as="geometry" />
        </mxCell>
        <mxCell id="K8zAyNqNulzR1zCwIbut-1" value="Sākums" style="ellipse;whiteSpace=wrap;html=1;" vertex="1" parent="1">
          <mxGeometry x="360" y="-140" width="160" height="110" as="geometry" />
        </mxCell>
        <mxCell id="K8zAyNqNulzR1zCwIbut-14" style="edgeStyle=orthogonalEdgeStyle;rounded=0;orthogonalLoop=1;jettySize=auto;html=1;exitX=1;exitY=0.5;exitDx=0;exitDy=0;entryX=0.5;entryY=0;entryDx=0;entryDy=0;" edge="1" parent="1" target="K8zAyNqNulzR1zCwIbut-8">
          <mxGeometry relative="1" as="geometry">
            <mxPoint x="560" y="110" as="sourcePoint" />
            <mxPoint x="990" y="230" as="targetPoint" />
          </mxGeometry>
        </mxCell>
        <mxCell id="K8zAyNqNulzR1zCwIbut-15" style="edgeStyle=orthogonalEdgeStyle;rounded=0;orthogonalLoop=1;jettySize=auto;html=1;exitX=1;exitY=0.75;exitDx=0;exitDy=0;entryX=0.5;entryY=0;entryDx=0;entryDy=0;" edge="1" parent="1" source="K8zAyNqNulzR1zCwIbut-2" target="K8zAyNqNulzR1zCwIbut-7">
          <mxGeometry relative="1" as="geometry">
            <Array as="points">
              <mxPoint x="556" y="170" />
              <mxPoint x="680" y="170" />
            </Array>
          </mxGeometry>
        </mxCell>
        <mxCell id="K8zAyNqNulzR1zCwIbut-2" value="Komandu izvēle" style="shape=parallelogram;perimeter=parallelogramPerimeter;whiteSpace=wrap;html=1;fixedSize=1;" vertex="1" parent="1">
          <mxGeometry x="310" y="60" width="260" height="140" as="geometry" />
        </mxCell>
        <mxCell id="K8zAyNqNulzR1zCwIbut-56" style="edgeStyle=orthogonalEdgeStyle;rounded=0;orthogonalLoop=1;jettySize=auto;html=1;exitX=0.5;exitY=1;exitDx=0;exitDy=0;entryX=1;entryY=0.5;entryDx=0;entryDy=0;" edge="1" parent="1" source="K8zAyNqNulzR1zCwIbut-3" target="K8zAyNqNulzR1zCwIbut-55">
          <mxGeometry relative="1" as="geometry">
            <mxPoint x="1150" y="760" as="targetPoint" />
          </mxGeometry>
        </mxCell>
        <mxCell id="K8zAyNqNulzR1zCwIbut-3" value="0. Iziet" style="rounded=0;whiteSpace=wrap;html=1;" vertex="1" parent="1">
          <mxGeometry x="1100" y="240" width="100" height="60" as="geometry" />
        </mxCell>
        <mxCell id="K8zAyNqNulzR1zCwIbut-4" value="1.Pievienot auto" style="rounded=0;whiteSpace=wrap;html=1;" vertex="1" parent="1">
          <mxGeometry x="-20" y="240" width="100" height="60" as="geometry" />
        </mxCell>
        <mxCell id="K8zAyNqNulzR1zCwIbut-19" style="edgeStyle=orthogonalEdgeStyle;rounded=0;orthogonalLoop=1;jettySize=auto;html=1;exitX=0.5;exitY=1;exitDx=0;exitDy=0;entryX=0.5;entryY=0;entryDx=0;entryDy=0;" edge="1" parent="1" source="K8zAyNqNulzR1zCwIbut-5" target="K8zAyNqNulzR1zCwIbut-18">
          <mxGeometry relative="1" as="geometry" />
        </mxCell>
        <mxCell id="K8zAyNqNulzR1zCwIbut-5" value="2.Parādīt visas automašīnas" style="rounded=0;whiteSpace=wrap;html=1;" vertex="1" parent="1">
          <mxGeometry x="180" y="240" width="100" height="60" as="geometry" />
        </mxCell>
        <mxCell id="K8zAyNqNulzR1zCwIbut-6" value="3.Iznomāt auto" style="rounded=0;whiteSpace=wrap;html=1;" vertex="1" parent="1">
          <mxGeometry x="380" y="240" width="100" height="60" as="geometry" />
        </mxCell>
        <mxCell id="K8zAyNqNulzR1zCwIbut-7" value="4.Atgriezt auto" style="rounded=0;whiteSpace=wrap;html=1;" vertex="1" parent="1">
          <mxGeometry x="630" y="240" width="100" height="60" as="geometry" />
        </mxCell>
        <mxCell id="K8zAyNqNulzR1zCwIbut-58" style="edgeStyle=orthogonalEdgeStyle;rounded=0;orthogonalLoop=1;jettySize=auto;html=1;exitX=0.5;exitY=1;exitDx=0;exitDy=0;" edge="1" parent="1" source="K8zAyNqNulzR1zCwIbut-8">
          <mxGeometry relative="1" as="geometry">
            <mxPoint x="1000" y="380" as="targetPoint" />
          </mxGeometry>
        </mxCell>
        <mxCell id="K8zAyNqNulzR1zCwIbut-8" value="5.Parādīt statistiku" style="rounded=0;whiteSpace=wrap;html=1;" vertex="1" parent="1">
          <mxGeometry x="950" y="240" width="100" height="60" as="geometry" />
        </mxCell>
        <mxCell id="K8zAyNqNulzR1zCwIbut-11" style="edgeStyle=orthogonalEdgeStyle;rounded=0;orthogonalLoop=1;jettySize=auto;html=1;exitX=0;exitY=0.75;exitDx=0;exitDy=0;entryX=0.493;entryY=-0.083;entryDx=0;entryDy=0;entryPerimeter=0;" edge="1" parent="1" source="K8zAyNqNulzR1zCwIbut-2" target="K8zAyNqNulzR1zCwIbut-5">
          <mxGeometry relative="1" as="geometry" />
        </mxCell>
        <mxCell id="K8zAyNqNulzR1zCwIbut-12" style="edgeStyle=orthogonalEdgeStyle;rounded=0;orthogonalLoop=1;jettySize=auto;html=1;exitX=0.5;exitY=1;exitDx=0;exitDy=0;entryX=0.583;entryY=-0.048;entryDx=0;entryDy=0;entryPerimeter=0;" edge="1" parent="1" source="K8zAyNqNulzR1zCwIbut-2" target="K8zAyNqNulzR1zCwIbut-6">
          <mxGeometry relative="1" as="geometry" />
        </mxCell>
        <mxCell id="K8zAyNqNulzR1zCwIbut-13" style="edgeStyle=orthogonalEdgeStyle;rounded=0;orthogonalLoop=1;jettySize=auto;html=1;exitX=1;exitY=0.25;exitDx=0;exitDy=0;entryX=0.507;entryY=-0.071;entryDx=0;entryDy=0;entryPerimeter=0;" edge="1" parent="1" source="K8zAyNqNulzR1zCwIbut-2" target="K8zAyNqNulzR1zCwIbut-3">
          <mxGeometry relative="1" as="geometry">
            <Array as="points">
              <mxPoint x="565" y="90" />
              <mxPoint x="1150" y="90" />
              <mxPoint x="1150" y="236" />
            </Array>
          </mxGeometry>
        </mxCell>
        <mxCell id="K8zAyNqNulzR1zCwIbut-16" value="Ievadi auto datus (marka, modelis, gads, cena dienā" style="shape=parallelogram;perimeter=parallelogramPerimeter;whiteSpace=wrap;html=1;fixedSize=1;" vertex="1" parent="1">
          <mxGeometry x="-70" y="330" width="160" height="80" as="geometry" />
        </mxCell>
        <mxCell id="K8zAyNqNulzR1zCwIbut-17" style="edgeStyle=orthogonalEdgeStyle;rounded=0;orthogonalLoop=1;jettySize=auto;html=1;exitX=0.5;exitY=1;exitDx=0;exitDy=0;entryX=0.638;entryY=-0.015;entryDx=0;entryDy=0;entryPerimeter=0;" edge="1" parent="1" source="K8zAyNqNulzR1zCwIbut-4" target="K8zAyNqNulzR1zCwIbut-16">
          <mxGeometry relative="1" as="geometry" />
        </mxCell>
        <mxCell id="K8zAyNqNulzR1zCwIbut-45" style="edgeStyle=orthogonalEdgeStyle;rounded=0;orthogonalLoop=1;jettySize=auto;html=1;exitX=0.75;exitY=1;exitDx=0;exitDy=0;entryX=0.5;entryY=1;entryDx=0;entryDy=0;" edge="1" parent="1" source="K8zAyNqNulzR1zCwIbut-18" target="K8zAyNqNulzR1zCwIbut-24">
          <mxGeometry relative="1" as="geometry">
            <Array as="points">
              <mxPoint x="255" y="570" />
              <mxPoint x="380" y="570" />
            </Array>
          </mxGeometry>
        </mxCell>
        <mxCell id="K8zAyNqNulzR1zCwIbut-48" style="edgeStyle=orthogonalEdgeStyle;rounded=0;orthogonalLoop=1;jettySize=auto;html=1;exitX=0.75;exitY=1;exitDx=0;exitDy=0;entryX=0.5;entryY=1;entryDx=0;entryDy=0;" edge="1" parent="1" source="K8zAyNqNulzR1zCwIbut-18" target="K8zAyNqNulzR1zCwIbut-35">
          <mxGeometry relative="1" as="geometry">
            <Array as="points">
              <mxPoint x="255" y="570" />
              <mxPoint x="670" y="570" />
            </Array>
          </mxGeometry>
        </mxCell>
        <mxCell id="K8zAyNqNulzR1zCwIbut-18" value="Parāda visas pievienotas auto" style="rounded=0;whiteSpace=wrap;html=1;" vertex="1" parent="1">
          <mxGeometry x="180" y="350" width="100" height="60" as="geometry" />
        </mxCell>
        <mxCell id="K8zAyNqNulzR1zCwIbut-30" style="edgeStyle=orthogonalEdgeStyle;rounded=0;orthogonalLoop=1;jettySize=auto;html=1;exitX=1;exitY=0.5;exitDx=0;exitDy=0;" edge="1" parent="1" source="K8zAyNqNulzR1zCwIbut-20">
          <mxGeometry relative="1" as="geometry">
            <mxPoint x="320" y="144" as="targetPoint" />
            <Array as="points">
              <mxPoint x="140" y="480" />
              <mxPoint x="140" y="130" />
              <mxPoint x="320" y="130" />
            </Array>
          </mxGeometry>
        </mxCell>
        <mxCell id="K8zAyNqNulzR1zCwIbut-20" value="Auto ar datiem" style="rounded=0;whiteSpace=wrap;html=1;" vertex="1" parent="1">
          <mxGeometry x="-50" y="450" width="100" height="60" as="geometry" />
        </mxCell>
        <mxCell id="K8zAyNqNulzR1zCwIbut-21" style="edgeStyle=orthogonalEdgeStyle;rounded=0;orthogonalLoop=1;jettySize=auto;html=1;exitX=0.5;exitY=1;exitDx=0;exitDy=0;entryX=0.6;entryY=0;entryDx=0;entryDy=0;entryPerimeter=0;" edge="1" parent="1" source="K8zAyNqNulzR1zCwIbut-16" target="K8zAyNqNulzR1zCwIbut-20">
          <mxGeometry relative="1" as="geometry" />
        </mxCell>
        <mxCell id="K8zAyNqNulzR1zCwIbut-26" style="edgeStyle=orthogonalEdgeStyle;rounded=0;orthogonalLoop=1;jettySize=auto;html=1;exitX=0.5;exitY=1;exitDx=0;exitDy=0;entryX=0.5;entryY=0;entryDx=0;entryDy=0;" edge="1" parent="1" source="K8zAyNqNulzR1zCwIbut-22" target="K8zAyNqNulzR1zCwIbut-24">
          <mxGeometry relative="1" as="geometry" />
        </mxCell>
        <mxCell id="K8zAyNqNulzR1zCwIbut-27" style="edgeStyle=orthogonalEdgeStyle;rounded=0;orthogonalLoop=1;jettySize=auto;html=1;exitX=0.5;exitY=1;exitDx=0;exitDy=0;entryX=0.5;entryY=0;entryDx=0;entryDy=0;" edge="1" parent="1" source="K8zAyNqNulzR1zCwIbut-22" target="K8zAyNqNulzR1zCwIbut-25">
          <mxGeometry relative="1" as="geometry" />
        </mxCell>
        <mxCell id="K8zAyNqNulzR1zCwIbut-22" value="Ievadi auto numuru" style="shape=parallelogram;perimeter=parallelogramPerimeter;whiteSpace=wrap;html=1;fixedSize=1;" vertex="1" parent="1">
          <mxGeometry x="370" y="350" width="130" height="70" as="geometry" />
        </mxCell>
        <mxCell id="K8zAyNqNulzR1zCwIbut-23" style="edgeStyle=orthogonalEdgeStyle;rounded=0;orthogonalLoop=1;jettySize=auto;html=1;exitX=0.5;exitY=1;exitDx=0;exitDy=0;entryX=0.467;entryY=-0.046;entryDx=0;entryDy=0;entryPerimeter=0;" edge="1" parent="1" source="K8zAyNqNulzR1zCwIbut-6" target="K8zAyNqNulzR1zCwIbut-22">
          <mxGeometry relative="1" as="geometry" />
        </mxCell>
        <mxCell id="K8zAyNqNulzR1zCwIbut-24" value="Pareiz numurs, tu iznomāji auto" style="rounded=0;whiteSpace=wrap;html=1;" vertex="1" parent="1">
          <mxGeometry x="330" y="470" width="100" height="60" as="geometry" />
        </mxCell>
        <mxCell id="K8zAyNqNulzR1zCwIbut-25" value="Nepareiz numurs" style="rounded=0;whiteSpace=wrap;html=1;" vertex="1" parent="1">
          <mxGeometry x="470" y="470" width="100" height="60" as="geometry" />
        </mxCell>
        <mxCell id="K8zAyNqNulzR1zCwIbut-38" style="edgeStyle=orthogonalEdgeStyle;rounded=0;orthogonalLoop=1;jettySize=auto;html=1;exitX=0.5;exitY=1;exitDx=0;exitDy=0;entryX=0.5;entryY=0;entryDx=0;entryDy=0;" edge="1" parent="1" source="K8zAyNqNulzR1zCwIbut-31" target="K8zAyNqNulzR1zCwIbut-36">
          <mxGeometry relative="1" as="geometry">
            <Array as="points">
              <mxPoint x="685" y="450" />
              <mxPoint x="790" y="450" />
            </Array>
          </mxGeometry>
        </mxCell>
        <mxCell id="K8zAyNqNulzR1zCwIbut-31" value="Ievadi auto numuru" style="shape=parallelogram;perimeter=parallelogramPerimeter;whiteSpace=wrap;html=1;fixedSize=1;" vertex="1" parent="1">
          <mxGeometry x="620" y="340" width="130" height="70" as="geometry" />
        </mxCell>
        <mxCell id="K8zAyNqNulzR1zCwIbut-32" style="edgeStyle=orthogonalEdgeStyle;rounded=0;orthogonalLoop=1;jettySize=auto;html=1;exitX=0.5;exitY=1;exitDx=0;exitDy=0;entryX=0.459;entryY=-0.002;entryDx=0;entryDy=0;entryPerimeter=0;" edge="1" parent="1" source="K8zAyNqNulzR1zCwIbut-7" target="K8zAyNqNulzR1zCwIbut-31">
          <mxGeometry relative="1" as="geometry" />
        </mxCell>
        <mxCell id="K8zAyNqNulzR1zCwIbut-33" style="edgeStyle=orthogonalEdgeStyle;rounded=0;orthogonalLoop=1;jettySize=auto;html=1;exitX=0.75;exitY=0;exitDx=0;exitDy=0;entryX=0.777;entryY=1.018;entryDx=0;entryDy=0;entryPerimeter=0;" edge="1" parent="1" source="K8zAyNqNulzR1zCwIbut-25" target="K8zAyNqNulzR1zCwIbut-2">
          <mxGeometry relative="1" as="geometry">
            <Array as="points">
              <mxPoint x="545" y="270" />
              <mxPoint x="512" y="270" />
            </Array>
          </mxGeometry>
        </mxCell>
        <mxCell id="K8zAyNqNulzR1zCwIbut-34" style="edgeStyle=orthogonalEdgeStyle;rounded=0;orthogonalLoop=1;jettySize=auto;html=1;exitX=0;exitY=0.25;exitDx=0;exitDy=0;entryX=0.479;entryY=-0.083;entryDx=0;entryDy=0;entryPerimeter=0;" edge="1" parent="1" source="K8zAyNqNulzR1zCwIbut-2" target="K8zAyNqNulzR1zCwIbut-4">
          <mxGeometry relative="1" as="geometry" />
        </mxCell>
        <mxCell id="K8zAyNqNulzR1zCwIbut-44" style="edgeStyle=orthogonalEdgeStyle;rounded=0;orthogonalLoop=1;jettySize=auto;html=1;exitX=0;exitY=0.5;exitDx=0;exitDy=0;entryX=1;entryY=1;entryDx=0;entryDy=0;" edge="1" parent="1" source="K8zAyNqNulzR1zCwIbut-35" target="K8zAyNqNulzR1zCwIbut-2">
          <mxGeometry relative="1" as="geometry">
            <mxPoint x="580" y="190" as="targetPoint" />
            <Array as="points">
              <mxPoint x="590" y="500" />
              <mxPoint x="590" y="190" />
            </Array>
          </mxGeometry>
        </mxCell>
        <mxCell id="K8zAyNqNulzR1zCwIbut-35" value="Pareiz numurs, tu atgriezi auto" style="rounded=0;whiteSpace=wrap;html=1;" vertex="1" parent="1">
          <mxGeometry x="620" y="470" width="100" height="60" as="geometry" />
        </mxCell>
        <mxCell id="K8zAyNqNulzR1zCwIbut-39" style="edgeStyle=orthogonalEdgeStyle;rounded=0;orthogonalLoop=1;jettySize=auto;html=1;exitX=0.75;exitY=0;exitDx=0;exitDy=0;entryX=0.963;entryY=0.61;entryDx=0;entryDy=0;entryPerimeter=0;" edge="1" parent="1">
          <mxGeometry relative="1" as="geometry">
            <mxPoint x="552.6700000000001" y="145.4000000000001" as="targetPoint" />
            <mxPoint x="807.29" y="470" as="sourcePoint" />
            <Array as="points">
              <mxPoint x="807.29" y="145" />
              <mxPoint x="752.29" y="145" />
            </Array>
          </mxGeometry>
        </mxCell>
        <mxCell id="K8zAyNqNulzR1zCwIbut-36" value="Nepareiz numurs" style="rounded=0;whiteSpace=wrap;html=1;" vertex="1" parent="1">
          <mxGeometry x="740" y="470" width="100" height="60" as="geometry" />
        </mxCell>
        <mxCell id="K8zAyNqNulzR1zCwIbut-37" style="edgeStyle=orthogonalEdgeStyle;rounded=0;orthogonalLoop=1;jettySize=auto;html=1;exitX=0.5;exitY=1;exitDx=0;exitDy=0;entryX=0.41;entryY=-0.032;entryDx=0;entryDy=0;entryPerimeter=0;" edge="1" parent="1" source="K8zAyNqNulzR1zCwIbut-31" target="K8zAyNqNulzR1zCwIbut-35">
          <mxGeometry relative="1" as="geometry">
            <Array as="points">
              <mxPoint x="685" y="450" />
              <mxPoint x="661" y="450" />
            </Array>
          </mxGeometry>
        </mxCell>
        <mxCell id="K8zAyNqNulzR1zCwIbut-40" style="edgeStyle=orthogonalEdgeStyle;rounded=0;orthogonalLoop=1;jettySize=auto;html=1;exitX=1;exitY=0.5;exitDx=0;exitDy=0;entryX=0.095;entryY=1.028;entryDx=0;entryDy=0;entryPerimeter=0;" edge="1" parent="1" source="K8zAyNqNulzR1zCwIbut-18" target="K8zAyNqNulzR1zCwIbut-2">
          <mxGeometry relative="1" as="geometry" />
        </mxCell>
        <mxCell id="K8zAyNqNulzR1zCwIbut-41" style="edgeStyle=orthogonalEdgeStyle;rounded=0;orthogonalLoop=1;jettySize=auto;html=1;exitX=1;exitY=0.5;exitDx=0;exitDy=0;entryX=0.548;entryY=1.026;entryDx=0;entryDy=0;entryPerimeter=0;" edge="1" parent="1" source="K8zAyNqNulzR1zCwIbut-20" target="K8zAyNqNulzR1zCwIbut-18">
          <mxGeometry relative="1" as="geometry">
            <Array as="points">
              <mxPoint x="235" y="480" />
            </Array>
          </mxGeometry>
        </mxCell>
        <mxCell id="K8zAyNqNulzR1zCwIbut-42" value="Saglāba info" style="edgeLabel;html=1;align=center;verticalAlign=middle;resizable=0;points=[];" vertex="1" connectable="0" parent="K8zAyNqNulzR1zCwIbut-41">
          <mxGeometry x="0.0455" y="2" relative="1" as="geometry">
            <mxPoint as="offset" />
          </mxGeometry>
        </mxCell>
        <mxCell id="K8zAyNqNulzR1zCwIbut-43" style="edgeStyle=orthogonalEdgeStyle;rounded=0;orthogonalLoop=1;jettySize=auto;html=1;exitX=0.25;exitY=0;exitDx=0;exitDy=0;entryX=0.164;entryY=1.014;entryDx=0;entryDy=0;entryPerimeter=0;" edge="1" parent="1" source="K8zAyNqNulzR1zCwIbut-24" target="K8zAyNqNulzR1zCwIbut-2">
          <mxGeometry relative="1" as="geometry">
            <Array as="points">
              <mxPoint x="353" y="470" />
              <mxPoint x="353" y="335" />
            </Array>
          </mxGeometry>
        </mxCell>
        <mxCell id="K8zAyNqNulzR1zCwIbut-54" style="edgeStyle=orthogonalEdgeStyle;rounded=0;orthogonalLoop=1;jettySize=auto;html=1;exitX=0;exitY=0.5;exitDx=0;exitDy=0;" edge="1" parent="1" source="K8zAyNqNulzR1zCwIbut-49" target="K8zAyNqNulzR1zCwIbut-2">
          <mxGeometry relative="1" as="geometry">
            <mxPoint x="870" y="130" as="targetPoint" />
            <Array as="points">
              <mxPoint x="890" y="425" />
              <mxPoint x="890" y="130" />
            </Array>
          </mxGeometry>
        </mxCell>
        <mxCell id="K8zAyNqNulzR1zCwIbut-49" value="Aprēķinā vidēju un dargāku cenu auto" style="rounded=0;whiteSpace=wrap;html=1;" vertex="1" parent="1">
          <mxGeometry x="940" y="380" width="110" height="70" as="geometry" />
        </mxCell>
        <mxCell id="K8zAyNqNulzR1zCwIbut-51" style="edgeStyle=orthogonalEdgeStyle;rounded=0;orthogonalLoop=1;jettySize=auto;html=1;exitX=0.75;exitY=1;exitDx=0;exitDy=0;entryX=0.545;entryY=1;entryDx=0;entryDy=0;entryPerimeter=0;" edge="1" parent="1" source="K8zAyNqNulzR1zCwIbut-18" target="K8zAyNqNulzR1zCwIbut-49">
          <mxGeometry relative="1" as="geometry">
            <Array as="points">
              <mxPoint x="255" y="570" />
              <mxPoint x="1000" y="570" />
            </Array>
          </mxGeometry>
        </mxCell>
        <mxCell id="K8zAyNqNulzR1zCwIbut-57" value="Saglabāta info" style="edgeLabel;html=1;align=center;verticalAlign=middle;resizable=0;points=[];" vertex="1" connectable="0" parent="K8zAyNqNulzR1zCwIbut-51">
          <mxGeometry x="-0.6322" y="-1" relative="1" as="geometry">
            <mxPoint x="28" as="offset" />
          </mxGeometry>
        </mxCell>
        <mxCell id="K8zAyNqNulzR1zCwIbut-55" value="Beigums" style="ellipse;whiteSpace=wrap;html=1;" vertex="1" parent="1">
          <mxGeometry x="380" y="700" width="160" height="110" as="geometry" />
        </mxCell>
      </root>
    </mxGraphModel>
  </diagram>
</mxfile>
